<svg width="33" height="30" viewBox="0 0 33 30" fill="none" xmlns="http://www.w3.org/2000/svg">
<path d="M24.7772 7.79348H28.1739C30.0499 7.79348 31.5707 9.31425 31.5707 11.1902V20.1576C31.5707 22.0336 30.0499 23.5543 28.1739 23.5543H24.7772V27.1305C24.7772 28.5002 23.0923 29.1534 22.1691 28.1415L17.9837 23.5543H11.1902C10.4687 23.5543 9.90625 23.9688 9.90625 23.9688M9.90625 23.9688L14.587 17.9837H21.3804C23.2564 17.9837 24.7772 16.4629 24.7772 14.587V4.39674C24.7772 2.52077 23.2564 1 21.3804 1H4.39674C2.52077 1 1 2.52077 1 4.39674V14.587C1 16.4629 2.52077 17.9837 4.39674 17.9837H7.79348V23.157C7.79348 24.2676 9.16264 24.7937 9.90625 23.9688V23.9688Z" stroke="#222222" stroke-width="2" stroke-linecap="round" stroke-linejoin="round"/>
</svg>
