<svg width="35" height="32" viewBox="0 0 35 32" fill="none" xmlns="http://www.w3.org/2000/svg">
<path d="M0 4.57143C0 2.0467 2.0467 0 4.57143 0H20.5714C23.0962 0 25.1429 2.0467 25.1429 4.57143V13.7143C25.1429 16.239 23.0962 18.2857 20.5714 18.2857H16L10.85 23.4358C10.22 24.0657 9.14286 23.6195 9.14286 22.7286V18.2857H4.57143C2.0467 18.2857 0 16.239 0 13.7143V4.57143Z" fill="#0BAF00"/>
<path d="M27.4286 6.85714V16.5714C27.4286 18.7806 25.6377 20.5714 23.4286 20.5714H16.7507L12.7125 24.6096C13.3521 24.95 14.0821 25.1429 14.8571 25.1429H18.2857L24.2893 31.1465C24.6043 31.4614 25.1429 31.2383 25.1429 30.7929V25.1429H29.7143C32.239 25.1429 34.2857 23.0962 34.2857 20.5714V11.4286C34.2857 8.90384 32.239 6.85714 29.7143 6.85714H27.4286Z" fill="#0BAF00"/>
</svg>
