<svg width="31" height="30" viewBox="0 0 31 30" fill="none" xmlns="http://www.w3.org/2000/svg">
<path d="M10.7227 8.23193C9.88266 8.23193 9.22266 8.90693 9.22266 9.73193C9.22266 10.5569 9.89766 11.2319 10.7227 11.2319C11.5477 11.2319 12.2227 10.5569 12.2227 9.73193C12.2227 8.90693 11.5477 8.23193 10.7227 8.23193Z" fill="white"/>
<path d="M29.19 4.56C27.93 1.635 25.155 0 21.285 0H8.715C3.9 0 0 3.9 0 8.715V21.285C0 25.155 1.635 27.93 4.56 29.19C4.845 29.31 5.175 29.235 5.385 29.025L29.025 5.385C29.25 5.16 29.325 4.83 29.19 4.56ZM12.795 15.36C12.21 15.93 11.445 16.2 10.68 16.2C9.915 16.2 9.15 15.915 8.565 15.36C7.035 13.92 5.355 11.625 6 8.895C6.57 6.42 8.76 5.31 10.68 5.31C12.6 5.31 14.79 6.42 15.36 8.91C15.99 11.625 14.31 13.92 12.795 15.36ZM26.2035 27.795C26.5335 28.125 26.4885 28.665 26.0835 28.89C24.7635 29.625 23.1585 30 21.2835 30H8.7135C8.2785 30 8.0985 29.49 8.3985 29.19L17.4585 20.13C17.7585 19.83 18.2235 19.83 18.5235 20.13L26.2035 27.795ZM30.003 8.7135V21.2835C30.003 23.1585 29.628 24.7785 28.893 26.0835C28.668 26.4885 28.128 26.5185 27.798 26.2035L20.118 18.5235C19.818 18.2235 19.818 17.7585 20.118 17.4585L29.178 8.3985C29.493 8.0985 30.003 8.2785 30.003 8.7135Z" fill="white"/>
</svg>
