<svg width="30" height="30" viewBox="0 0 30 30" fill="none" xmlns="http://www.w3.org/2000/svg">
<path d="M23.637 6C22.722 6 21.882 5.475 21.462 4.665L20.382 2.49C19.692 1.125 17.892 0 16.362 0H12.927C11.382 0 9.58197 1.125 8.89197 2.49L7.81197 4.665C7.39197 5.475 6.55197 6 5.63697 6C2.38197 6 -0.19803 8.745 0.0119701 11.985L0.79197 24.375C0.97197 27.465 2.63697 30 6.77697 30H22.497C26.637 30 28.287 27.465 28.482 24.375L29.262 11.985C29.3106 11.2167 29.2011 10.4467 28.9403 9.72242C28.6796 8.99815 28.273 8.33505 27.7458 7.77412C27.2186 7.21319 26.582 6.76634 25.8753 6.46119C25.1686 6.15604 24.4068 5.99908 23.637 6ZM10.587 7.875H18.687C19.302 7.875 19.812 8.385 19.812 9C19.812 9.615 19.302 10.125 18.687 10.125H10.587C9.97197 10.125 9.46197 9.615 9.46197 9C9.46197 8.385 9.97197 7.875 10.587 7.875ZM14.637 24.18C11.847 24.18 9.56697 21.915 9.56697 19.11C9.56697 16.305 11.832 14.04 14.637 14.04C17.442 14.04 19.707 16.305 19.707 19.11C19.707 21.915 17.427 24.18 14.637 24.18Z" fill="white"/>
</svg>
