<svg width="33" height="32" viewBox="0 0 33 32" fill="none" xmlns="http://www.w3.org/2000/svg">
<path d="M16.1777 31C24.462 31 31.1777 24.2843 31.1777 16C31.1777 7.71573 24.462 1 16.1777 1C7.89346 1 1.17773 7.71573 1.17773 16C1.17773 24.2843 7.89346 31 16.1777 31Z" stroke="#AAAAAA" stroke-width="2" stroke-miterlimit="10"/>
<path d="M24.8601 17.752C23.8341 21.388 20.5221 23.86 16.1781 23.86C11.8401 23.86 8.52209 21.388 7.49609 17.752" stroke="#AAAAAA" stroke-width="2" stroke-miterlimit="10" stroke-linecap="round"/>
<path d="M9.89609 15.1961C11.2216 15.1961 12.2961 14.1216 12.2961 12.7961C12.2961 11.4706 11.2216 10.3961 9.89609 10.3961C8.57061 10.3961 7.49609 11.4706 7.49609 12.7961C7.49609 14.1216 8.57061 15.1961 9.89609 15.1961Z" fill="#AAAAAA"/>
<path d="M22.4586 15.1961C23.7841 15.1961 24.8586 14.1216 24.8586 12.7961C24.8586 11.4706 23.7841 10.3961 22.4586 10.3961C21.1331 10.3961 20.0586 11.4706 20.0586 12.7961C20.0586 14.1216 21.1331 15.1961 22.4586 15.1961Z" fill="#AAAAAA"/>
</svg>
