<svg width="30" height="30" viewBox="0 0 30 30" fill="none" xmlns="http://www.w3.org/2000/svg">
<path d="M0.869219 25.5164L0.839219 25.5464C0.434219 24.6614 0.179219 23.6564 0.0742188 22.5464C0.179219 23.6414 0.464219 24.6314 0.869219 25.5164ZM10.5007 12.5714C11.4475 12.5714 12.3556 12.1953 13.0251 11.5258C13.6946 10.8563 14.0707 9.94825 14.0707 9.00143C14.0707 8.05461 13.6946 7.14656 13.0251 6.47706C12.3556 5.80755 11.4475 5.43143 10.5007 5.43143C9.5539 5.43143 8.64585 5.80755 7.97635 6.47706C7.30684 7.14656 6.93072 8.05461 6.93072 9.00143C6.93072 9.94825 7.30684 10.8563 7.97635 11.5258C8.64585 12.1953 9.5539 12.5714 10.5007 12.5714Z" fill="white"/>
<path d="M21.285 0H8.715C3.255 0 0 3.255 0 8.715V21.285C0 22.92 0.285 24.345 0.84 25.545C2.13 28.395 4.89 30 8.715 30H21.285C26.745 30 30 26.745 30 21.285V8.715C30 3.255 26.745 0 21.285 0ZM27.555 15.75C26.385 14.745 24.495 14.745 23.325 15.75L17.085 21.105C15.915 22.11 14.025 22.11 12.855 21.105L12.345 20.685C11.28 19.755 9.585 19.665 8.385 20.475L2.775 24.24C2.445 23.4 2.25 22.425 2.25 21.285V8.715C2.25 4.485 4.485 2.25 8.715 2.25H21.285C25.515 2.25 27.75 4.485 27.75 8.715V15.915L27.555 15.75Z" fill="white"/>
</svg>
