<svg width="31" height="30" viewBox="0 0 31 30" fill="none" xmlns="http://www.w3.org/2000/svg">
<path d="M21.7612 0.630168L7.41194 5.39735C-2.23367 8.62315 -2.23367 13.8829 7.41194 17.0928L11.6706 18.5071L13.0849 22.7658C16.2948 32.4114 21.5705 32.4114 24.7804 22.7658L29.5635 8.43246C31.6928 1.99676 28.1969 -1.51506 21.7612 0.630168ZM22.2697 9.17932L16.2312 15.2495C15.9929 15.4879 15.6909 15.5991 15.389 15.5991C15.0871 15.5991 14.7852 15.4879 14.5468 15.2495C14.3252 15.0253 14.2009 14.7227 14.2009 14.4073C14.2009 14.092 14.3252 13.7894 14.5468 13.5651L20.5853 7.49492C21.0461 7.03409 21.8088 7.03409 22.2697 7.49492C22.7305 7.95574 22.7305 8.71849 22.2697 9.17932Z" fill="#0BAF00"/>
</svg>
